<mxfile host="app.diagrams.net" modified="2023-11-24T05:45:16.543Z" agent="Mozilla/5.0 (Windows NT 10.0; Win64; x64) AppleWebKit/537.36 (KHTML, like Gecko) Chrome/118.0.0.0 Safari/537.36 OPR/104.0.0.0 (Edition Yx GX)" etag="ChOVj8UTFFhx-vb_9UcZ" version="22.1.3" type="github">
  <diagram name="Страница — 1" id="s1BxT6yYm-144mR474__">
    <mxGraphModel dx="642" dy="2622" grid="1" gridSize="10" guides="1" tooltips="1" connect="1" arrows="1" fold="1" page="1" pageScale="1" pageWidth="827" pageHeight="1169" math="0" shadow="0">
      <root>
        <mxCell id="0" />
        <mxCell id="1" parent="0" />
        <mxCell id="KzX0U6cRAiab-4Jcinkh-1" value="&lt;p style=&quot;line-height: 110%;&quot;&gt;&lt;span style=&quot;font-size: 18px;&quot;&gt;strtok&lt;/span&gt;&lt;/p&gt;" style="ellipse;whiteSpace=wrap;html=1;labelBackgroundColor=none;" parent="1" vertex="1">
          <mxGeometry x="3526.5" y="-522" width="110" height="60" as="geometry" />
        </mxCell>
        <mxCell id="KzX0U6cRAiab-4Jcinkh-2" style="edgeStyle=orthogonalEdgeStyle;rounded=0;orthogonalLoop=1;jettySize=auto;html=1;exitX=0.5;exitY=1;exitDx=0;exitDy=0;entryX=0.5;entryY=0;entryDx=0;entryDy=0;labelBackgroundColor=none;fontColor=default;" parent="1" target="KzX0U6cRAiab-4Jcinkh-6" edge="1">
          <mxGeometry relative="1" as="geometry">
            <mxPoint x="3581.5" y="-462" as="sourcePoint" />
          </mxGeometry>
        </mxCell>
        <mxCell id="KzX0U6cRAiab-4Jcinkh-5" style="edgeStyle=orthogonalEdgeStyle;rounded=0;orthogonalLoop=1;jettySize=auto;html=1;exitX=0.5;exitY=1;exitDx=0;exitDy=0;entryX=0.5;entryY=0;entryDx=0;entryDy=0;labelBackgroundColor=none;fontColor=default;" parent="1" source="KzX0U6cRAiab-4Jcinkh-6" edge="1">
          <mxGeometry relative="1" as="geometry">
            <mxPoint x="3582.5" y="-310" as="targetPoint" />
          </mxGeometry>
        </mxCell>
        <mxCell id="KzX0U6cRAiab-4Jcinkh-6" value="&lt;span style=&quot;font-size: 25px;&quot;&gt;s, ds&lt;br&gt;&lt;/span&gt;" style="shape=parallelogram;perimeter=parallelogramPerimeter;whiteSpace=wrap;html=1;fixedSize=1;labelBackgroundColor=none;" parent="1" vertex="1">
          <mxGeometry x="3522.5" y="-415.5" width="120" height="60" as="geometry" />
        </mxCell>
        <mxCell id="KzX0U6cRAiab-4Jcinkh-11" style="edgeStyle=orthogonalEdgeStyle;rounded=0;orthogonalLoop=1;jettySize=auto;html=1;exitX=1;exitY=0.5;exitDx=0;exitDy=0;entryX=0.5;entryY=0;entryDx=0;entryDy=0;labelBackgroundColor=none;fontColor=default;" parent="1" source="KzX0U6cRAiab-4Jcinkh-7" target="KzX0U6cRAiab-4Jcinkh-18" edge="1">
          <mxGeometry relative="1" as="geometry">
            <mxPoint x="3830" y="-130" as="targetPoint" />
          </mxGeometry>
        </mxCell>
        <mxCell id="KzX0U6cRAiab-4Jcinkh-12" style="edgeStyle=orthogonalEdgeStyle;rounded=0;orthogonalLoop=1;jettySize=auto;html=1;exitX=0;exitY=0.5;exitDx=0;exitDy=0;labelBackgroundColor=none;fontColor=default;" parent="1" source="KzX0U6cRAiab-4Jcinkh-7" edge="1">
          <mxGeometry relative="1" as="geometry">
            <mxPoint x="3350" y="-130" as="targetPoint" />
          </mxGeometry>
        </mxCell>
        <mxCell id="KzX0U6cRAiab-4Jcinkh-16" value="&lt;font style=&quot;font-size: 20px;&quot;&gt;Да&lt;/font&gt;" style="edgeLabel;html=1;align=center;verticalAlign=middle;resizable=0;points=[];labelBackgroundColor=none;" parent="KzX0U6cRAiab-4Jcinkh-12" vertex="1" connectable="0">
          <mxGeometry x="-0.4974" y="-3" relative="1" as="geometry">
            <mxPoint x="3" y="2" as="offset" />
          </mxGeometry>
        </mxCell>
        <mxCell id="KzX0U6cRAiab-4Jcinkh-7" value="&lt;span style=&quot;font-size: 20px;&quot;&gt;*s == NULL || strlen(*s) == 0&lt;/span&gt;" style="rhombus;whiteSpace=wrap;html=1;labelBackgroundColor=none;" parent="1" vertex="1">
          <mxGeometry x="3432.5" y="-310" width="300" height="150.5" as="geometry" />
        </mxCell>
        <mxCell id="KzX0U6cRAiab-4Jcinkh-13" value="&lt;span style=&quot;font-size: 25px;&quot;&gt;NULL&lt;br&gt;&lt;/span&gt;" style="shape=parallelogram;perimeter=parallelogramPerimeter;whiteSpace=wrap;html=1;fixedSize=1;labelBackgroundColor=none;" parent="1" vertex="1">
          <mxGeometry x="3288" y="-130" width="120" height="60" as="geometry" />
        </mxCell>
        <mxCell id="KzX0U6cRAiab-4Jcinkh-14" value="" style="edgeStyle=orthogonalEdgeStyle;rounded=0;orthogonalLoop=1;jettySize=auto;html=1;exitX=0.5;exitY=1;exitDx=0;exitDy=0;labelBackgroundColor=none;fontColor=default;" parent="1" edge="1">
          <mxGeometry relative="1" as="geometry">
            <mxPoint x="3348.55" y="-21" as="targetPoint" />
            <mxPoint x="3348.55" y="-70" as="sourcePoint" />
          </mxGeometry>
        </mxCell>
        <mxCell id="KzX0U6cRAiab-4Jcinkh-15" value="&lt;p style=&quot;line-height: 110%;&quot;&gt;&lt;span style=&quot;font-size: 18px;&quot;&gt;Конец&lt;/span&gt;&lt;/p&gt;" style="ellipse;whiteSpace=wrap;html=1;labelBackgroundColor=none;" parent="1" vertex="1">
          <mxGeometry x="3293" y="-22" width="110" height="60" as="geometry" />
        </mxCell>
        <mxCell id="KzX0U6cRAiab-4Jcinkh-18" value="* p = * s" style="rounded=0;whiteSpace=wrap;html=1;fontSize=20;labelBackgroundColor=none;" parent="1" vertex="1">
          <mxGeometry x="3744" y="-140" width="160" height="51" as="geometry" />
        </mxCell>
        <mxCell id="KzX0U6cRAiab-4Jcinkh-19" style="edgeStyle=orthogonalEdgeStyle;rounded=0;orthogonalLoop=1;jettySize=auto;html=1;exitX=0.5;exitY=1;exitDx=0;exitDy=0;entryX=0.5;entryY=0;entryDx=0;entryDy=0;labelBackgroundColor=none;fontColor=default;" parent="1" target="KzX0U6cRAiab-4Jcinkh-20" edge="1">
          <mxGeometry relative="1" as="geometry">
            <mxPoint x="3824" y="-89" as="sourcePoint" />
          </mxGeometry>
        </mxCell>
        <mxCell id="KzX0U6cRAiab-4Jcinkh-20" value="* buf = NULL" style="rounded=0;whiteSpace=wrap;html=1;fontSize=20;labelBackgroundColor=none;" parent="1" vertex="1">
          <mxGeometry x="3732.5" y="-40" width="185" height="51" as="geometry" />
        </mxCell>
        <mxCell id="KzX0U6cRAiab-4Jcinkh-22" style="edgeStyle=orthogonalEdgeStyle;rounded=0;orthogonalLoop=1;jettySize=auto;html=1;exitX=0.5;exitY=1;exitDx=0;exitDy=0;entryX=0.5;entryY=0;entryDx=0;entryDy=0;labelBackgroundColor=none;fontColor=default;" parent="1" source="KzX0U6cRAiab-4Jcinkh-20" edge="1">
          <mxGeometry relative="1" as="geometry">
            <mxPoint x="3823" y="11" as="sourcePoint" />
            <mxPoint x="3824" y="60" as="targetPoint" />
          </mxGeometry>
        </mxCell>
        <mxCell id="KzX0U6cRAiab-4Jcinkh-25" style="edgeStyle=orthogonalEdgeStyle;rounded=0;orthogonalLoop=1;jettySize=auto;html=1;exitX=1;exitY=0.5;exitDx=0;exitDy=0;entryX=0.5;entryY=0;entryDx=0;entryDy=0;labelBackgroundColor=none;fontColor=default;" parent="1" source="KzX0U6cRAiab-4Jcinkh-24" target="KzX0U6cRAiab-4Jcinkh-39" edge="1">
          <mxGeometry relative="1" as="geometry">
            <mxPoint x="3980" y="230" as="targetPoint" />
          </mxGeometry>
        </mxCell>
        <mxCell id="KzX0U6cRAiab-4Jcinkh-27" style="edgeStyle=orthogonalEdgeStyle;rounded=0;orthogonalLoop=1;jettySize=auto;html=1;exitX=0;exitY=0.5;exitDx=0;exitDy=0;labelBackgroundColor=none;fontColor=default;" parent="1" source="KzX0U6cRAiab-4Jcinkh-24" edge="1">
          <mxGeometry relative="1" as="geometry">
            <mxPoint x="3580" y="250" as="targetPoint" />
          </mxGeometry>
        </mxCell>
        <mxCell id="KzX0U6cRAiab-4Jcinkh-24" value="&lt;span style=&quot;font-size: 20px;&quot;&gt;* p == &#39;\0&#39;&lt;/span&gt;" style="rhombus;whiteSpace=wrap;html=1;labelBackgroundColor=none;" parent="1" vertex="1">
          <mxGeometry x="3754" y="60" width="140" height="100.5" as="geometry" />
        </mxCell>
        <mxCell id="KzX0U6cRAiab-4Jcinkh-26" value="&lt;font style=&quot;font-size: 20px;&quot;&gt;Да&lt;/font&gt;" style="edgeLabel;html=1;align=center;verticalAlign=middle;resizable=0;points=[];labelBackgroundColor=none;" parent="1" vertex="1" connectable="0">
          <mxGeometry x="3680.000307432472" y="110.24744628665889" as="geometry" />
        </mxCell>
        <mxCell id="KzX0U6cRAiab-4Jcinkh-29" style="edgeStyle=orthogonalEdgeStyle;rounded=0;orthogonalLoop=1;jettySize=auto;html=1;exitX=0;exitY=0.5;exitDx=0;exitDy=0;labelBackgroundColor=none;fontColor=default;" parent="1" source="KzX0U6cRAiab-4Jcinkh-28" edge="1">
          <mxGeometry relative="1" as="geometry">
            <mxPoint x="3340" y="380" as="targetPoint" />
          </mxGeometry>
        </mxCell>
        <mxCell id="_Bv3riwBaQYBxhMeag00-1" style="edgeStyle=orthogonalEdgeStyle;rounded=0;hachureGap=4;orthogonalLoop=1;jettySize=auto;html=1;exitX=0.5;exitY=1;exitDx=0;exitDy=0;fontFamily=Architects Daughter;fontSource=https%3A%2F%2Ffonts.googleapis.com%2Fcss%3Ffamily%3DArchitects%2BDaughter;fontSize=16;" parent="1" source="KzX0U6cRAiab-4Jcinkh-28" edge="1">
          <mxGeometry relative="1" as="geometry">
            <mxPoint x="3350" y="450" as="targetPoint" />
            <Array as="points">
              <mxPoint x="3582" y="450" />
              <mxPoint x="3350" y="450" />
            </Array>
          </mxGeometry>
        </mxCell>
        <mxCell id="KzX0U6cRAiab-4Jcinkh-28" value="&lt;span style=&quot;font-size: 20px;&quot;&gt;* s == NULL&lt;/span&gt;" style="rhombus;whiteSpace=wrap;html=1;labelBackgroundColor=none;" parent="1" vertex="1">
          <mxGeometry x="3511.5" y="250" width="140" height="100.5" as="geometry" />
        </mxCell>
        <mxCell id="KzX0U6cRAiab-4Jcinkh-32" style="edgeStyle=orthogonalEdgeStyle;rounded=0;orthogonalLoop=1;jettySize=auto;html=1;exitX=0.5;exitY=1;exitDx=0;exitDy=0;entryX=0.5;entryY=0;entryDx=0;entryDy=0;labelBackgroundColor=none;fontColor=default;" parent="1" source="KzX0U6cRAiab-4Jcinkh-30" target="KzX0U6cRAiab-4Jcinkh-31" edge="1">
          <mxGeometry relative="1" as="geometry" />
        </mxCell>
        <mxCell id="KzX0U6cRAiab-4Jcinkh-30" value="free(*s)" style="rounded=0;whiteSpace=wrap;html=1;fontSize=20;labelBackgroundColor=none;" parent="1" vertex="1">
          <mxGeometry x="3255.5" y="380" width="185" height="51" as="geometry" />
        </mxCell>
        <mxCell id="KzX0U6cRAiab-4Jcinkh-37" style="edgeStyle=orthogonalEdgeStyle;rounded=0;orthogonalLoop=1;jettySize=auto;html=1;exitX=0.5;exitY=1;exitDx=0;exitDy=0;entryX=0.5;entryY=0;entryDx=0;entryDy=0;labelBackgroundColor=none;fontColor=default;" parent="1" source="KzX0U6cRAiab-4Jcinkh-31" target="KzX0U6cRAiab-4Jcinkh-34" edge="1">
          <mxGeometry relative="1" as="geometry" />
        </mxCell>
        <mxCell id="KzX0U6cRAiab-4Jcinkh-31" value="* s = NULL" style="rounded=0;whiteSpace=wrap;html=1;fontSize=20;labelBackgroundColor=none;" parent="1" vertex="1">
          <mxGeometry x="3255.5" y="480" width="185" height="51" as="geometry" />
        </mxCell>
        <mxCell id="KzX0U6cRAiab-4Jcinkh-34" value="&lt;span style=&quot;font-size: 25px;&quot;&gt;buf&lt;br&gt;&lt;/span&gt;" style="shape=parallelogram;perimeter=parallelogramPerimeter;whiteSpace=wrap;html=1;fixedSize=1;labelBackgroundColor=none;" parent="1" vertex="1">
          <mxGeometry x="3288" y="600" width="120" height="60" as="geometry" />
        </mxCell>
        <mxCell id="KzX0U6cRAiab-4Jcinkh-35" value="" style="edgeStyle=orthogonalEdgeStyle;rounded=0;orthogonalLoop=1;jettySize=auto;html=1;exitX=0.5;exitY=1;exitDx=0;exitDy=0;labelBackgroundColor=none;fontColor=default;" parent="1" edge="1">
          <mxGeometry relative="1" as="geometry">
            <mxPoint x="3348.55" y="709" as="targetPoint" />
            <mxPoint x="3348.55" y="660" as="sourcePoint" />
          </mxGeometry>
        </mxCell>
        <mxCell id="KzX0U6cRAiab-4Jcinkh-36" value="&lt;p style=&quot;line-height: 110%;&quot;&gt;&lt;span style=&quot;font-size: 18px;&quot;&gt;Конец&lt;/span&gt;&lt;/p&gt;" style="ellipse;whiteSpace=wrap;html=1;labelBackgroundColor=none;" parent="1" vertex="1">
          <mxGeometry x="3293" y="708" width="110" height="60" as="geometry" />
        </mxCell>
        <mxCell id="KzX0U6cRAiab-4Jcinkh-40" style="edgeStyle=orthogonalEdgeStyle;rounded=0;orthogonalLoop=1;jettySize=auto;html=1;exitX=0;exitY=0.5;exitDx=0;exitDy=0;entryX=0.5;entryY=0;entryDx=0;entryDy=0;labelBackgroundColor=none;fontColor=default;" parent="1" source="KzX0U6cRAiab-4Jcinkh-39" target="KzX0U6cRAiab-4Jcinkh-72" edge="1">
          <mxGeometry relative="1" as="geometry">
            <mxPoint x="3836.5" y="466.3299999999999" as="targetPoint" />
          </mxGeometry>
        </mxCell>
        <mxCell id="KzX0U6cRAiab-4Jcinkh-41" style="edgeStyle=orthogonalEdgeStyle;rounded=0;orthogonalLoop=1;jettySize=auto;html=1;exitX=1;exitY=0.5;exitDx=0;exitDy=0;labelBackgroundColor=none;fontColor=default;" parent="1" source="KzX0U6cRAiab-4Jcinkh-39" edge="1">
          <mxGeometry relative="1" as="geometry">
            <mxPoint x="4300" y="470" as="targetPoint" />
          </mxGeometry>
        </mxCell>
        <mxCell id="KzX0U6cRAiab-4Jcinkh-39" value="&lt;span style=&quot;font-size: 20px;&quot;&gt;buf != NULL &amp;amp;&amp;amp; strlen(buf) != 0&lt;/span&gt;" style="rhombus;whiteSpace=wrap;html=1;labelBackgroundColor=none;" parent="1" vertex="1">
          <mxGeometry x="3870" y="230" width="300" height="160" as="geometry" />
        </mxCell>
        <mxCell id="KzX0U6cRAiab-4Jcinkh-44" style="edgeStyle=orthogonalEdgeStyle;rounded=0;orthogonalLoop=1;jettySize=auto;html=1;exitX=0.5;exitY=1;exitDx=0;exitDy=0;entryX=0.5;entryY=0;entryDx=0;entryDy=0;labelBackgroundColor=none;fontColor=default;" parent="1" source="KzX0U6cRAiab-4Jcinkh-42" target="KzX0U6cRAiab-4Jcinkh-45" edge="1">
          <mxGeometry relative="1" as="geometry">
            <mxPoint x="4300" y="590" as="targetPoint" />
          </mxGeometry>
        </mxCell>
        <mxCell id="KzX0U6cRAiab-4Jcinkh-61" style="edgeStyle=orthogonalEdgeStyle;rounded=0;orthogonalLoop=1;jettySize=auto;html=1;exitX=1;exitY=0.5;exitDx=0;exitDy=0;labelBackgroundColor=none;fontColor=default;" parent="1" source="KzX0U6cRAiab-4Jcinkh-42" target="KzX0U6cRAiab-4Jcinkh-62" edge="1">
          <mxGeometry relative="1" as="geometry">
            <mxPoint x="4560" y="494.66666666666697" as="targetPoint" />
          </mxGeometry>
        </mxCell>
        <mxCell id="KzX0U6cRAiab-4Jcinkh-42" value="&lt;span style=&quot;font-size: 20px;&quot;&gt;* dp = ds; * dp != &#39;\0&#39;; dp++&lt;/span&gt;" style="shape=hexagon;perimeter=hexagonPerimeter2;whiteSpace=wrap;html=1;fixedSize=1;labelBackgroundColor=none;" parent="1" vertex="1">
          <mxGeometry x="4130" y="470" width="340" height="50" as="geometry" />
        </mxCell>
        <mxCell id="KzX0U6cRAiab-4Jcinkh-46" style="edgeStyle=orthogonalEdgeStyle;rounded=0;orthogonalLoop=1;jettySize=auto;html=1;exitX=1;exitY=0.5;exitDx=0;exitDy=0;labelBackgroundColor=none;fontColor=default;" parent="1" source="KzX0U6cRAiab-4Jcinkh-45" edge="1">
          <mxGeometry relative="1" as="geometry">
            <mxPoint x="4500" y="770" as="targetPoint" />
          </mxGeometry>
        </mxCell>
        <mxCell id="KzX0U6cRAiab-4Jcinkh-59" style="edgeStyle=orthogonalEdgeStyle;rounded=0;orthogonalLoop=1;jettySize=auto;html=1;exitX=0;exitY=0.5;exitDx=0;exitDy=0;entryX=0;entryY=0.5;entryDx=0;entryDy=0;labelBackgroundColor=none;fontColor=default;" parent="1" source="KzX0U6cRAiab-4Jcinkh-45" target="KzX0U6cRAiab-4Jcinkh-42" edge="1">
          <mxGeometry relative="1" as="geometry" />
        </mxCell>
        <mxCell id="KzX0U6cRAiab-4Jcinkh-45" value="&lt;span style=&quot;font-size: 20px;&quot;&gt;* dp == * p&lt;/span&gt;" style="rhombus;whiteSpace=wrap;html=1;labelBackgroundColor=none;" parent="1" vertex="1">
          <mxGeometry x="4230" y="579.75" width="140" height="100.5" as="geometry" />
        </mxCell>
        <mxCell id="KzX0U6cRAiab-4Jcinkh-49" style="edgeStyle=orthogonalEdgeStyle;rounded=0;orthogonalLoop=1;jettySize=auto;html=1;exitX=0.5;exitY=1;exitDx=0;exitDy=0;entryX=0.5;entryY=0;entryDx=0;entryDy=0;labelBackgroundColor=none;fontColor=default;" parent="1" source="KzX0U6cRAiab-4Jcinkh-47" target="KzX0U6cRAiab-4Jcinkh-48" edge="1">
          <mxGeometry relative="1" as="geometry" />
        </mxCell>
        <mxCell id="KzX0U6cRAiab-4Jcinkh-47" value="new = malloc(1)" style="rounded=0;whiteSpace=wrap;html=1;fontSize=20;labelBackgroundColor=none;" parent="1" vertex="1">
          <mxGeometry x="4410" y="768" width="185" height="51" as="geometry" />
        </mxCell>
        <mxCell id="KzX0U6cRAiab-4Jcinkh-52" style="edgeStyle=orthogonalEdgeStyle;rounded=0;orthogonalLoop=1;jettySize=auto;html=1;exitX=0.5;exitY=1;exitDx=0;exitDy=0;entryX=0.5;entryY=0;entryDx=0;entryDy=0;labelBackgroundColor=none;fontColor=default;" parent="1" source="KzX0U6cRAiab-4Jcinkh-48" target="KzX0U6cRAiab-4Jcinkh-51" edge="1">
          <mxGeometry relative="1" as="geometry" />
        </mxCell>
        <mxCell id="KzX0U6cRAiab-4Jcinkh-48" value="new[0] = &#39;\0&#39;" style="rounded=0;whiteSpace=wrap;html=1;fontSize=20;labelBackgroundColor=none;" parent="1" vertex="1">
          <mxGeometry x="4410" y="850" width="185" height="51" as="geometry" />
        </mxCell>
        <mxCell id="KzX0U6cRAiab-4Jcinkh-50" style="edgeStyle=orthogonalEdgeStyle;rounded=0;orthogonalLoop=1;jettySize=auto;html=1;exitX=0.5;exitY=1;exitDx=0;exitDy=0;entryX=0.5;entryY=0;entryDx=0;entryDy=0;labelBackgroundColor=none;fontColor=default;" parent="1" source="KzX0U6cRAiab-4Jcinkh-51" edge="1">
          <mxGeometry relative="1" as="geometry">
            <mxPoint x="4502.5" y="1070" as="targetPoint" />
          </mxGeometry>
        </mxCell>
        <mxCell id="KzX0U6cRAiab-4Jcinkh-55" style="edgeStyle=orthogonalEdgeStyle;rounded=0;orthogonalLoop=1;jettySize=auto;html=1;exitX=1;exitY=0.5;exitDx=0;exitDy=0;entryX=0.5;entryY=0;entryDx=0;entryDy=0;labelBackgroundColor=none;fontColor=default;" parent="1" source="KzX0U6cRAiab-4Jcinkh-51" target="KzX0U6cRAiab-4Jcinkh-56" edge="1">
          <mxGeometry relative="1" as="geometry">
            <mxPoint x="4800" y="1060" as="targetPoint" />
          </mxGeometry>
        </mxCell>
        <mxCell id="KzX0U6cRAiab-4Jcinkh-51" value="&lt;span style=&quot;font-size: 20px;&quot;&gt;* np = p + 1; * np != &#39;\0&#39;; np++&lt;/span&gt;" style="shape=hexagon;perimeter=hexagonPerimeter2;whiteSpace=wrap;html=1;fixedSize=1;labelBackgroundColor=none;" parent="1" vertex="1">
          <mxGeometry x="4332.5" y="950" width="340" height="50" as="geometry" />
        </mxCell>
        <mxCell id="KzX0U6cRAiab-4Jcinkh-54" style="edgeStyle=orthogonalEdgeStyle;rounded=0;orthogonalLoop=1;jettySize=auto;html=1;exitX=0.5;exitY=1;exitDx=0;exitDy=0;entryX=0;entryY=0.5;entryDx=0;entryDy=0;labelBackgroundColor=none;fontColor=default;" parent="1" source="KzX0U6cRAiab-4Jcinkh-53" target="KzX0U6cRAiab-4Jcinkh-51" edge="1">
          <mxGeometry relative="1" as="geometry" />
        </mxCell>
        <mxCell id="KzX0U6cRAiab-4Jcinkh-53" value="new = my_strncat(new, *np)" style="rounded=0;whiteSpace=wrap;html=1;fontSize=20;labelBackgroundColor=none;" parent="1" vertex="1">
          <mxGeometry x="4352.5" y="1070" width="300" height="51" as="geometry" />
        </mxCell>
        <mxCell id="KzX0U6cRAiab-4Jcinkh-58" style="edgeStyle=orthogonalEdgeStyle;rounded=0;orthogonalLoop=1;jettySize=auto;html=1;exitX=0.5;exitY=1;exitDx=0;exitDy=0;entryX=0.5;entryY=0;entryDx=0;entryDy=0;labelBackgroundColor=none;fontColor=default;" parent="1" source="KzX0U6cRAiab-4Jcinkh-56" target="KzX0U6cRAiab-4Jcinkh-57" edge="1">
          <mxGeometry relative="1" as="geometry" />
        </mxCell>
        <mxCell id="KzX0U6cRAiab-4Jcinkh-56" value="free(*s)" style="rounded=0;whiteSpace=wrap;html=1;fontSize=20;labelBackgroundColor=none;" parent="1" vertex="1">
          <mxGeometry x="4710" y="1070" width="185" height="51" as="geometry" />
        </mxCell>
        <mxCell id="KzX0U6cRAiab-4Jcinkh-69" style="edgeStyle=orthogonalEdgeStyle;rounded=0;orthogonalLoop=1;jettySize=auto;html=1;exitX=0.5;exitY=1;exitDx=0;exitDy=0;entryX=0.5;entryY=0;entryDx=0;entryDy=0;labelBackgroundColor=none;fontColor=default;" parent="1" source="KzX0U6cRAiab-4Jcinkh-57" target="KzX0U6cRAiab-4Jcinkh-66" edge="1">
          <mxGeometry relative="1" as="geometry" />
        </mxCell>
        <mxCell id="KzX0U6cRAiab-4Jcinkh-57" value="*s = new" style="rounded=0;whiteSpace=wrap;html=1;fontSize=20;labelBackgroundColor=none;" parent="1" vertex="1">
          <mxGeometry x="4710" y="1160" width="185" height="51" as="geometry" />
        </mxCell>
        <mxCell id="KzX0U6cRAiab-4Jcinkh-60" value="&lt;font style=&quot;font-size: 20px;&quot;&gt;Да&lt;/font&gt;" style="edgeLabel;html=1;align=center;verticalAlign=middle;resizable=0;points=[];labelBackgroundColor=none;" parent="1" vertex="1" connectable="0">
          <mxGeometry x="4240.000307432472" y="309.9974462866589" as="geometry" />
        </mxCell>
        <mxCell id="KzX0U6cRAiab-4Jcinkh-62" value="" style="ellipse;whiteSpace=wrap;html=1;aspect=fixed;labelBackgroundColor=none;" parent="1" vertex="1">
          <mxGeometry x="4520" y="466.33" width="57.33" height="57.33" as="geometry" />
        </mxCell>
        <mxCell id="KzX0U6cRAiab-4Jcinkh-65" style="edgeStyle=orthogonalEdgeStyle;rounded=0;orthogonalLoop=1;jettySize=auto;html=1;exitX=1;exitY=0.5;exitDx=0;exitDy=0;labelBackgroundColor=none;fontColor=default;" parent="1" edge="1">
          <mxGeometry relative="1" as="geometry">
            <mxPoint x="3825" y="360" as="targetPoint" />
            <mxPoint x="3760.830000000001" y="360.08500000000004" as="sourcePoint" />
          </mxGeometry>
        </mxCell>
        <mxCell id="KzX0U6cRAiab-4Jcinkh-64" value="" style="ellipse;whiteSpace=wrap;html=1;aspect=fixed;labelBackgroundColor=none;" parent="1" vertex="1">
          <mxGeometry x="3817.59" y="1160" width="59.83" height="59.83" as="geometry" />
        </mxCell>
        <mxCell id="KzX0U6cRAiab-4Jcinkh-66" value="&lt;span style=&quot;font-size: 25px;&quot;&gt;buf&lt;br&gt;&lt;/span&gt;" style="shape=parallelogram;perimeter=parallelogramPerimeter;whiteSpace=wrap;html=1;fixedSize=1;labelBackgroundColor=none;" parent="1" vertex="1">
          <mxGeometry x="4742.5" y="1250" width="120" height="60" as="geometry" />
        </mxCell>
        <mxCell id="KzX0U6cRAiab-4Jcinkh-67" value="" style="edgeStyle=orthogonalEdgeStyle;rounded=0;orthogonalLoop=1;jettySize=auto;html=1;exitX=0.5;exitY=1;exitDx=0;exitDy=0;labelBackgroundColor=none;fontColor=default;" parent="1" edge="1">
          <mxGeometry relative="1" as="geometry">
            <mxPoint x="4803.05" y="1359" as="targetPoint" />
            <mxPoint x="4803.05" y="1310" as="sourcePoint" />
          </mxGeometry>
        </mxCell>
        <mxCell id="KzX0U6cRAiab-4Jcinkh-68" value="&lt;p style=&quot;line-height: 110%;&quot;&gt;&lt;span style=&quot;font-size: 18px;&quot;&gt;Конец&lt;/span&gt;&lt;/p&gt;" style="ellipse;whiteSpace=wrap;html=1;labelBackgroundColor=none;" parent="1" vertex="1">
          <mxGeometry x="4747.5" y="1358" width="110" height="60" as="geometry" />
        </mxCell>
        <mxCell id="KzX0U6cRAiab-4Jcinkh-70" value="&lt;font style=&quot;font-size: 20px;&quot;&gt;Да&lt;/font&gt;" style="edgeLabel;html=1;align=center;verticalAlign=middle;resizable=0;points=[];labelBackgroundColor=none;" parent="1" vertex="1" connectable="0">
          <mxGeometry x="4430.000307432472" y="625.9974462866589" as="geometry" />
        </mxCell>
        <mxCell id="KzX0U6cRAiab-4Jcinkh-73" style="edgeStyle=orthogonalEdgeStyle;rounded=0;orthogonalLoop=1;jettySize=auto;html=1;exitX=1;exitY=0.5;exitDx=0;exitDy=0;entryX=0.5;entryY=0;entryDx=0;entryDy=0;labelBackgroundColor=none;fontColor=default;" parent="1" source="KzX0U6cRAiab-4Jcinkh-72" target="KzX0U6cRAiab-4Jcinkh-77" edge="1">
          <mxGeometry relative="1" as="geometry">
            <mxPoint x="4030" y="600" as="targetPoint" />
          </mxGeometry>
        </mxCell>
        <mxCell id="KzX0U6cRAiab-4Jcinkh-74" style="edgeStyle=orthogonalEdgeStyle;rounded=0;orthogonalLoop=1;jettySize=auto;html=1;exitX=0;exitY=0.5;exitDx=0;exitDy=0;entryX=0.5;entryY=0;entryDx=0;entryDy=0;labelBackgroundColor=none;fontColor=default;" parent="1" source="KzX0U6cRAiab-4Jcinkh-72" target="KzX0U6cRAiab-4Jcinkh-76" edge="1">
          <mxGeometry relative="1" as="geometry">
            <mxPoint x="3650" y="699.9999999999995" as="targetPoint" />
          </mxGeometry>
        </mxCell>
        <mxCell id="KzX0U6cRAiab-4Jcinkh-72" value="&lt;span style=&quot;font-size: 20px;&quot;&gt;buf == NULL&lt;/span&gt;" style="rhombus;whiteSpace=wrap;html=1;labelBackgroundColor=none;" parent="1" vertex="1">
          <mxGeometry x="3755" y="466.33" width="140" height="100.5" as="geometry" />
        </mxCell>
        <mxCell id="KzX0U6cRAiab-4Jcinkh-75" value="&lt;font style=&quot;font-size: 20px;&quot;&gt;Да&lt;/font&gt;" style="edgeLabel;html=1;align=center;verticalAlign=middle;resizable=0;points=[];labelBackgroundColor=none;" parent="1" vertex="1" connectable="0">
          <mxGeometry x="3950.000307432472" y="516.5774462866589" as="geometry" />
        </mxCell>
        <mxCell id="KzX0U6cRAiab-4Jcinkh-82" style="edgeStyle=orthogonalEdgeStyle;rounded=0;orthogonalLoop=1;jettySize=auto;html=1;exitX=0.5;exitY=1;exitDx=0;exitDy=0;labelBackgroundColor=none;fontColor=default;" parent="1" source="KzX0U6cRAiab-4Jcinkh-76" edge="1">
          <mxGeometry relative="1" as="geometry">
            <mxPoint x="3840" y="1070" as="targetPoint" />
            <Array as="points">
              <mxPoint x="3654" y="900" />
              <mxPoint x="3840" y="900" />
            </Array>
          </mxGeometry>
        </mxCell>
        <mxCell id="KzX0U6cRAiab-4Jcinkh-76" value="buf = strncat(buf, *p)" style="rounded=0;whiteSpace=wrap;html=1;fontSize=20;labelBackgroundColor=none;" parent="1" vertex="1">
          <mxGeometry x="3553" y="604.5" width="201" height="51" as="geometry" />
        </mxCell>
        <mxCell id="KzX0U6cRAiab-4Jcinkh-79" style="edgeStyle=orthogonalEdgeStyle;rounded=0;orthogonalLoop=1;jettySize=auto;html=1;exitX=0.5;exitY=1;exitDx=0;exitDy=0;entryX=0.5;entryY=0;entryDx=0;entryDy=0;labelBackgroundColor=none;fontColor=default;" parent="1" source="KzX0U6cRAiab-4Jcinkh-77" target="KzX0U6cRAiab-4Jcinkh-78" edge="1">
          <mxGeometry relative="1" as="geometry" />
        </mxCell>
        <mxCell id="KzX0U6cRAiab-4Jcinkh-77" value="buf = malloc(2)" style="rounded=0;whiteSpace=wrap;html=1;fontSize=20;labelBackgroundColor=none;" parent="1" vertex="1">
          <mxGeometry x="3894" y="609" width="186" height="51" as="geometry" />
        </mxCell>
        <mxCell id="KzX0U6cRAiab-4Jcinkh-81" style="edgeStyle=orthogonalEdgeStyle;rounded=0;orthogonalLoop=1;jettySize=auto;html=1;exitX=0.5;exitY=1;exitDx=0;exitDy=0;entryX=0.5;entryY=0;entryDx=0;entryDy=0;labelBackgroundColor=none;fontColor=default;" parent="1" source="KzX0U6cRAiab-4Jcinkh-78" target="KzX0U6cRAiab-4Jcinkh-80" edge="1">
          <mxGeometry relative="1" as="geometry" />
        </mxCell>
        <mxCell id="KzX0U6cRAiab-4Jcinkh-78" value="buf[0] = * p" style="rounded=0;whiteSpace=wrap;html=1;fontSize=20;labelBackgroundColor=none;" parent="1" vertex="1">
          <mxGeometry x="3894" y="700" width="186" height="51" as="geometry" />
        </mxCell>
        <mxCell id="KzX0U6cRAiab-4Jcinkh-83" style="edgeStyle=orthogonalEdgeStyle;rounded=0;orthogonalLoop=1;jettySize=auto;html=1;exitX=0.5;exitY=1;exitDx=0;exitDy=0;endArrow=none;endFill=0;labelBackgroundColor=none;fontColor=default;" parent="1" source="KzX0U6cRAiab-4Jcinkh-80" edge="1">
          <mxGeometry relative="1" as="geometry">
            <mxPoint x="3840" y="1040" as="targetPoint" />
            <Array as="points">
              <mxPoint x="3987" y="900" />
              <mxPoint x="3840" y="900" />
            </Array>
          </mxGeometry>
        </mxCell>
        <mxCell id="KzX0U6cRAiab-4Jcinkh-80" value="buf[1] = &#39;\0&#39;" style="rounded=0;whiteSpace=wrap;html=1;fontSize=20;labelBackgroundColor=none;" parent="1" vertex="1">
          <mxGeometry x="3894" y="780" width="186" height="51" as="geometry" />
        </mxCell>
        <mxCell id="KzX0U6cRAiab-4Jcinkh-85" style="edgeStyle=orthogonalEdgeStyle;rounded=0;orthogonalLoop=1;jettySize=auto;html=1;exitX=0.5;exitY=1;exitDx=0;exitDy=0;entryX=0.5;entryY=0;entryDx=0;entryDy=0;labelBackgroundColor=none;fontColor=default;" parent="1" source="KzX0U6cRAiab-4Jcinkh-84" target="KzX0U6cRAiab-4Jcinkh-64" edge="1">
          <mxGeometry relative="1" as="geometry" />
        </mxCell>
        <mxCell id="KzX0U6cRAiab-4Jcinkh-84" value="p++" style="rounded=0;whiteSpace=wrap;html=1;fontSize=20;labelBackgroundColor=none;" parent="1" vertex="1">
          <mxGeometry x="3755" y="1070" width="185" height="51" as="geometry" />
        </mxCell>
        <mxCell id="KzX0U6cRAiab-4Jcinkh-87" style="edgeStyle=orthogonalEdgeStyle;rounded=0;orthogonalLoop=1;jettySize=auto;html=1;exitX=0;exitY=0.5;exitDx=0;exitDy=0;labelBackgroundColor=none;fontColor=default;" parent="1" edge="1">
          <mxGeometry relative="1" as="geometry">
            <mxPoint x="3824" y="40" as="targetPoint" />
            <mxPoint x="3973.9999999999854" y="40.914999999999964" as="sourcePoint" />
          </mxGeometry>
        </mxCell>
        <mxCell id="KzX0U6cRAiab-4Jcinkh-86" value="" style="ellipse;whiteSpace=wrap;html=1;aspect=fixed;labelBackgroundColor=none;" parent="1" vertex="1">
          <mxGeometry x="3970" y="11.000000000000028" width="59.83" height="59.83" as="geometry" />
        </mxCell>
        <mxCell id="KzX0U6cRAiab-4Jcinkh-88" value="" style="ellipse;whiteSpace=wrap;html=1;aspect=fixed;labelBackgroundColor=none;" parent="1" vertex="1">
          <mxGeometry x="3700" y="330" width="59.83" height="59.83" as="geometry" />
        </mxCell>
        <mxCell id="KzX0U6cRAiab-4Jcinkh-33" value="&lt;font style=&quot;font-size: 20px;&quot;&gt;Нет&lt;/font&gt;" style="edgeLabel;html=1;align=center;verticalAlign=middle;resizable=0;points=[];labelBackgroundColor=none;" parent="1" vertex="1" connectable="0">
          <mxGeometry x="3432.500307432472" y="279.9974462866589" as="geometry">
            <mxPoint x="4" y="1" as="offset" />
          </mxGeometry>
        </mxCell>
      </root>
    </mxGraphModel>
  </diagram>
</mxfile>
